<svg xmlns="http://www.w3.org/2000/svg" viewBox="0 0 1922.26 288"><defs><style>.cls-1{fill:#0b081c;}.cls-2{fill:#4052a8;}.cls-3{fill:#1c147f;}.cls-4{fill:#282d8e;opacity:0.5;}</style></defs><g id="Camada_2" data-name="Camada 2"><g id="chao"><rect class="cls-1" x="0.74" width="1920" height="288"/><rect class="cls-2" y="25.74" width="1920" height="189.52"/><rect class="cls-3" y="216.03" width="1920" height="17.94"/><path class="cls-4" d="M1922.26,70.46H1512.69a27.47,27.47,0,0,0-27.16-23.39h-35.94a27.45,27.45,0,0,0-27.15,23.39H593.49a21,21,0,0,1-41.78,0H521.17a27.27,27.27,0,0,1,.3,4.07h0A27.45,27.45,0,0,1,494,102H458.08a27.46,27.46,0,0,1-27.46-27.45h0a27.26,27.26,0,0,1,.31-4.07H402.44a27.46,27.46,0,0,0-27.16-23.39H339.35a27.47,27.47,0,0,0-27.16,23.39H2.26v93.2H1065.05q0,.61,0,1.23h0a27.46,27.46,0,0,0,27.46,27.46h85a27.47,27.47,0,0,0,27.46-27.46h0c0-.41,0-.82,0-1.23h717.37Z"/><rect class="cls-4" x="1578.74" y="88" width="169" height="31.71" rx="15.85"/><rect class="cls-4" x="1236.74" y="121.72" width="103" height="31.71" rx="15.85"/><rect class="cls-4" x="731.74" y="103.85" width="68" height="31.71" rx="15.85"/><rect class="cls-4" x="1731.89" y="121.72" width="31.71" height="31.71" rx="15.85"/><rect class="cls-4" x="659.89" y="88" width="31.71" height="31.71" rx="15.85"/></g></g></svg>