<svg xmlns="http://www.w3.org/2000/svg" viewBox="0 0 377.68 203.18"><defs><style>.cls-1{fill:#5e53ea;}.cls-2{fill:#9485ff;}.cls-3{fill:#6f66e2;opacity:0.5;}.cls-4{fill:#4a2fba;}.cls-5{fill:#3926a8;}</style></defs><g id="Camada_2" data-name="Camada 2"><g id="Camada_9" data-name="Camada 9"><rect class="cls-1" y="20" width="377.68" height="183.18" rx="45.53"/><rect class="cls-2" width="377.68" height="183.18" rx="45.53"/><path class="cls-3" d="M332.15,0h-35c-.8,68.47-77.4,123.81-171.79,123.81-49.42,0-94-15.18-125.31-39.46v53.3a45.53,45.53,0,0,0,45.53,45.53H332.15a45.54,45.54,0,0,0,45.53-45.53V45.53A45.53,45.53,0,0,0,332.15,0Z"/><rect class="cls-4" x="117.25" y="-77.25" width="143.18" height="337.68" rx="25.53" transform="translate(280.43 -97.25) rotate(90)"/><path class="cls-5" d="M332.15,20H45.53A25.56,25.56,0,0,0,20,45.53V67.12A25.56,25.56,0,0,1,45.53,41.59H332.15a25.56,25.56,0,0,1,25.53,25.53V45.53A25.56,25.56,0,0,0,332.15,20Z"/></g></g></svg>