<svg xmlns="http://www.w3.org/2000/svg" viewBox="0 0 164.03 182.03"><defs><style>.cls-1{fill:#5e53ea;}.cls-2{fill:#9485ff;}.cls-3{fill:#6f66e2;opacity:0.5;}.cls-4{fill:#e3e1f9;opacity:0.3;}.cls-5{fill:#4a2fba;}.cls-6{fill:#3926a8;}</style></defs><g id="Camada_2" data-name="Camada 2"><g id="Camada_8" data-name="Camada 8"><rect class="cls-1" y="18" width="164.03" height="164.03" rx="42.64"/><rect class="cls-2" width="164.03" height="164.03" rx="42.64"/><path class="cls-3" d="M126.71.34c0,.89,0,1.77,0,2.66A94.5,94.5,0,0,1,32.26,97.5,94.24,94.24,0,0,1,0,91.84v29.55A42.64,42.64,0,0,0,42.64,164h78.75A42.64,42.64,0,0,0,164,121.39V42.64A42.63,42.63,0,0,0,126.71.34Z"/><circle class="cls-4" cx="129.93" cy="30.64" r="15.75"/><circle class="cls-4" cx="101.38" cy="14.89" r="7.87"/><rect class="cls-5" x="68.97" y="-16.72" width="26.09" height="116.09" rx="13.05" transform="translate(123.34 -40.68) rotate(90)"/><path class="cls-6" d="M34.35,35.61h90a13,13,0,0,1,13,13h0c0,.2,0,.4,0,.6a13,13,0,0,0-10.35-21H37A13,13,0,0,0,24,40.73,13,13,0,0,1,34.35,35.61Z"/><rect class="cls-5" x="68.97" y="22.73" width="26.09" height="116.09" rx="13.05" transform="translate(162.79 -1.24) rotate(90)"/><path class="cls-6" d="M34.35,75.05h90a13.05,13.05,0,0,1,13,13h0c0,.2,0,.4,0,.6a13,13,0,0,0-10.35-21H37A13,13,0,0,0,24,80.18,13,13,0,0,1,34.35,75.05Z"/><rect class="cls-5" x="68.97" y="62.18" width="26.09" height="116.09" rx="13.05" transform="translate(202.24 38.21) rotate(90)"/><path class="cls-6" d="M34.35,114.5h90a13,13,0,0,1,13,13h0c0,.2,0,.39,0,.59a13,13,0,0,0-10.35-21H37a13,13,0,0,0-13,12.45A13,13,0,0,1,34.35,114.5Z"/></g></g></svg>