<svg xmlns="http://www.w3.org/2000/svg" viewBox="0 0 164.03 182.03"><defs><style>.cls-1{fill:#5e53ea;}.cls-2{fill:#9485ff;}.cls-3{fill:#6f66e2;opacity:0.5;}.cls-4{fill:#e3e1f9;opacity:0.3;}.cls-5{fill:#4a2fba;}.cls-6{fill:#3926a8;}</style></defs><g id="Camada_2" data-name="Camada 2"><g id="UI"><rect class="cls-1" y="18" width="164.03" height="164.03" rx="42.64"/><rect class="cls-2" width="164.03" height="164.03" rx="42.64"/><path class="cls-3" d="M126.71.34c0,.89,0,1.77,0,2.66A94.5,94.5,0,0,1,32.26,97.5,94.24,94.24,0,0,1,0,91.84v29.55A42.64,42.64,0,0,0,42.64,164h78.75A42.64,42.64,0,0,0,164,121.39V42.64A42.63,42.63,0,0,0,126.71.34Z"/><circle class="cls-4" cx="129.93" cy="30.64" r="15.75"/><circle class="cls-4" cx="101.38" cy="14.89" r="7.87"/><path class="cls-5" d="M123.12,56.51a20.8,20.8,0,0,1,0,36l-25.4,14.66L72.33,121.84a20.79,20.79,0,0,1-31.18-18V45.19a20.79,20.79,0,0,1,31.18-18L97.72,41.85Z"/><path class="cls-6" d="M72.33,42.69,97.72,57.35,123.12,72A20.48,20.48,0,0,1,132,82.26a20.78,20.78,0,0,0-8.91-25.75L97.72,41.85,72.33,27.19a20.79,20.79,0,0,0-31.18,18v15.5A20.79,20.79,0,0,1,72.33,42.69Z"/></g></g></svg>