<svg xmlns="http://www.w3.org/2000/svg" viewBox="0 0 164.03 182.03"><defs><style>.cls-1{fill:#5e53ea;}.cls-2{fill:#9485ff;}.cls-3{fill:#6f66e2;opacity:0.5;}.cls-4{fill:#e3e1f9;opacity:0.3;}.cls-5{fill:#4a2fba;}.cls-6{fill:#3926a8;}</style></defs><g id="Camada_2" data-name="Camada 2"><g id="UI"><rect class="cls-1" y="18" width="164.03" height="164.03" rx="42.64"/><rect class="cls-2" width="164.03" height="164.03" rx="42.64"/><path class="cls-3" d="M126.71.34c0,.89,0,1.77,0,2.66A94.5,94.5,0,0,1,32.26,97.5,94.24,94.24,0,0,1,0,91.84v29.55A42.64,42.64,0,0,0,42.64,164h78.75A42.64,42.64,0,0,0,164,121.39V42.64A42.63,42.63,0,0,0,126.71.34Z"/><circle class="cls-4" cx="129.93" cy="30.64" r="15.75"/><circle class="cls-4" cx="101.38" cy="14.89" r="7.87"/><rect class="cls-5" x="36.05" y="30.64" width="38" height="90.78" rx="19"/><path class="cls-6" d="M55.05,30.64A19,19,0,0,0,39.9,38.2,19,19,0,0,1,66.05,55.8v52.77A18.88,18.88,0,0,1,62.19,120a19,19,0,0,0,11.86-17.6V49.64A19,19,0,0,0,55.05,30.64Z"/><rect class="cls-5" x="89.98" y="30.64" width="38" height="90.78" rx="19"/><path class="cls-6" d="M109,30.64A18.94,18.94,0,0,0,93.83,38.2,19,19,0,0,1,120,55.8v52.77A18.88,18.88,0,0,1,116.12,120,19,19,0,0,0,128,102.41V49.64A19,19,0,0,0,109,30.64Z"/></g></g></svg>