<svg xmlns="http://www.w3.org/2000/svg" viewBox="0 0 118.03 160.35"><defs><style>.cls-1{fill:#c41c34;}.cls-2{fill:#99052f;}.cls-3{fill:#ffc0cc;opacity:0.2;}.cls-4{fill:#69e26e;}</style></defs><g id="Camada_2" data-name="Camada 2"><g id="Modo_de_isolamento" data-name="Modo de isolamento"><path class="cls-1" d="M70.35,65A48,48,0,0,0,59,66.35,48.16,48.16,0,0,0,47.68,65,47.68,47.68,0,1,0,59,159,47.68,47.68,0,1,0,70.35,65Z"/><path class="cls-2" d="M103.68,78.59C97.43,111.25,68,136,32.59,136a73.78,73.78,0,0,1-29.35-6.06A47.66,47.66,0,0,0,59,159a47.67,47.67,0,0,0,44.66-80.39Z"/><circle class="cls-3" cx="84.26" cy="87.99" r="13.33"/><circle class="cls-3" cx="104.26" cy="127.49" r="6.67"/><path class="cls-4" d="M40.73,0c-5.57,6.74-6.5,19.32-1.58,31.73s14.22,20.94,22.9,22Z"/><path class="cls-4" d="M40.73,0c8.68,1.09,18,9.61,22.89,22s4,25-1.57,31.73Z"/></g></g></svg>