<svg xmlns="http://www.w3.org/2000/svg" viewBox="0 0 597.85 146.33"><defs><style>.cls-1{fill:#4052a8;}</style></defs><g id="Camada_2" data-name="Camada 2"><g id="Camada_1-2" data-name="Camada 1"><path class="cls-1" d="M561.18,73H367.06a36.66,36.66,0,0,0,31.79-36.33h0A36.67,36.67,0,0,0,362.18,0H36.67A36.67,36.67,0,0,0,0,36.67H0A36.66,36.66,0,0,0,36.67,73.33H230.78A36.67,36.67,0,0,0,199,109.67h0a36.66,36.66,0,0,0,36.67,36.66H561.18a36.66,36.66,0,0,0,36.67-36.66h0A36.67,36.67,0,0,0,561.18,73Z"/></g></g></svg>