<svg xmlns="http://www.w3.org/2000/svg" viewBox="0 0 437 220"><defs><style>.cls-1{fill:#4052a8;}</style></defs><g id="Camada_2" data-name="Camada 2"><g id="Camada_1-2" data-name="Camada 1"><path class="cls-1" d="M400.33,73.33H189.93a36.66,36.66,0,0,0,36.66-36.66h0A36.66,36.66,0,0,0,189.93,0H36.67A36.67,36.67,0,0,0,0,36.67H0A36.66,36.66,0,0,0,36.67,73.33H74.82A36.67,36.67,0,0,0,38.15,110h0a36.67,36.67,0,0,0,36.67,36.67H181.18a36.66,36.66,0,0,0-36.67,36.66h0A36.67,36.67,0,0,0,181.18,220h87.94a36.66,36.66,0,0,0,36.66-36.67h0a36.66,36.66,0,0,0-36.66-36.66H400.33A36.67,36.67,0,0,0,437,110h0A36.67,36.67,0,0,0,400.33,73.33Z"/></g></g></svg>