<svg xmlns="http://www.w3.org/2000/svg" viewBox="0 0 135 125"><defs><style>.cls-1{fill:#ba6919;}.cls-2{fill:#ffb127;}.cls-3{fill:#fff5e6;opacity:0.3;}.cls-4{fill:#e27e10;}.cls-5,.cls-7{fill:#fff9f0;}.cls-5,.cls-6{opacity:0.5;}</style></defs><g id="Camada_2" data-name="Camada 2"><g id="itens"><circle class="cls-1" cx="72.5" cy="62.5" r="62.5"/><circle class="cls-2" cx="62.5" cy="62.5" r="62.5"/><path class="cls-3" d="M123.88,74.23A96.48,96.48,0,0,0,63,53,96.38,96.38,0,0,0,1.24,75a62.5,62.5,0,0,0,122.64-.73Z"/><path class="cls-4" d="M87,62.5a18.49,18.49,0,0,1,14-17.93,42.5,42.5,0,1,0,0,35.86A18.49,18.49,0,0,1,87,62.5Z"/><path class="cls-1" d="M37,68.5A42.55,42.55,0,0,1,79.5,26a44.09,44.09,0,0,1,5.3.34,42.49,42.49,0,1,0-27.6,78.32A42.52,42.52,0,0,1,37,68.5Z"/><circle class="cls-5" cx="106.5" cy="62.5" r="9.5"/><g class="cls-6"><path class="cls-7" d="M62.5,120A47.23,47.23,0,0,1,36,111.87a5,5,0,1,1,5.61-8.28,37.42,37.42,0,0,0,38.57,2,5,5,0,1,1,4.72,8.81A47.54,47.54,0,0,1,62.5,120Z"/></g></g></g></svg>