<svg xmlns="http://www.w3.org/2000/svg" viewBox="0 0 429.56 139.08"><defs><style>.cls-1{fill:#9485ff;}.cls-2{fill:#6f66e2;}.cls-10,.cls-2,.cls-9{opacity:0.5;}.cls-3{fill:#4a2fba;}.cls-4{fill:#3926a8;}.cls-5{fill:#ba6919;}.cls-6{fill:#ffb127;}.cls-7{fill:#fff5e6;}.cls-12,.cls-7{opacity:0.3;}.cls-8{fill:#e27e10;}.cls-11,.cls-9{fill:#fff9f0;}.cls-12{fill:#630;}</style></defs><g id="Camada_2" data-name="Camada 2"><g id="UI"><path class="cls-1" d="M67.32,0H360a69.52,69.52,0,0,1,69.52,69.52v0A69.52,69.52,0,0,1,360,139.08H67.32a0,0,0,0,1,0,0V0a0,0,0,0,1,0,0Z"/><path class="cls-2" d="M360.05,0H332c-6.79,59.73-46.45,110.87-102.72,139H360.05a69.52,69.52,0,0,0,69.51-69.52h0A69.51,69.51,0,0,0,360.05,0Z"/><path class="cls-3" d="M77.32,129.08V10H360.05a59.52,59.52,0,0,1,0,119Z"/><path class="cls-4" d="M360.05,10H77.32V20.59H350.05a59.47,59.47,0,0,1,47.84,94.87A59.5,59.5,0,0,0,360.05,10Z"/><circle class="cls-5" cx="80.67" cy="69.54" r="69.54"/><circle class="cls-6" cx="69.54" cy="69.54" r="69.54"/><path class="cls-7" d="M137.84,82.59A107.36,107.36,0,0,0,70.1,59,107.16,107.16,0,0,0,1.39,83.4a69.54,69.54,0,0,0,136.45-.81Z"/><path class="cls-8" d="M96.8,69.54a20.56,20.56,0,0,1,15.6-20,47.29,47.29,0,1,0,0,39.9A20.57,20.57,0,0,1,96.8,69.54Z"/><path class="cls-5" d="M41.17,76.21a47.2,47.2,0,0,1,53.18-46.9,47.27,47.27,0,1,0-30.71,87.13A47.3,47.3,0,0,1,41.17,76.21Z"/><circle class="cls-9" cx="118.49" cy="69.54" r="10.57"/><g class="cls-10"><path class="cls-11" d="M69.54,133.51a52.5,52.5,0,0,1-29.54-9,5.56,5.56,0,1,1,6.24-9.21,41.63,41.63,0,0,0,42.91,2.22,5.56,5.56,0,1,1,5.25,9.81A52.84,52.84,0,0,1,69.54,133.51Z"/></g><path class="cls-12" d="M80.67,0c-1.88,0-3.73.1-5.57.24C73.26.1,71.41,0,69.54,0A69.56,69.56,0,0,0,1.39,83.4h0c.09.48.21,1,.32,1.43S2,86,2.11,86.56s.27,1,.41,1.53.29,1.06.45,1.58.32,1,.49,1.53L4,92.72c.18.51.37,1,.56,1.51s.38,1,.58,1.49.41,1,.62,1.46.44,1,.66,1.48.43.94.66,1.41.52,1,.78,1.52.44.86.67,1.29c.43.77.87,1.54,1.32,2.3l.88,1.4c.33.52.66,1,1,1.57s.56.8.84,1.2.64.92,1,1.38.6.79.9,1.19.68.87,1,1.3.63.77.95,1.15.73.85,1.1,1.27.65.73,1,1.09.79.84,1.19,1.25.65.68,1,1l1.36,1.3.92.86c.75.68,1.52,1.35,2.31,2l.66.52c.6.49,1.2,1,1.82,1.43l1,.74,1.55,1.1c.37.26.75.5,1.13.75l1.53,1c.39.24.78.48,1.18.71s1,.62,1.58.91l1.19.65c.55.3,1.12.59,1.69.87l1.15.57c.63.3,1.27.58,1.91.86l1,.44c1,.41,2,.8,3,1.17l.33.11c.89.33,1.8.63,2.71.92l1.07.32c.68.2,1.36.4,2,.58l1.25.3c.64.16,1.28.31,1.94.45l1.3.27c.65.12,1.3.24,2,.34q.66.12,1.32.21c.67.1,1.35.18,2,.26l1.27.14c.75.07,1.5.12,2.25.17.36,0,.73.06,1.09.07,1.12.06,2.25.09,3.38.09s2.26,0,3.38-.09l1.11-.07,1.14-.08c1.81.14,3.64.24,5.5.24A69.54,69.54,0,0,0,80.67,0Z"/></g></g></svg>