<svg xmlns="http://www.w3.org/2000/svg" viewBox="0 0 134 226.55"><defs><style>.cls-1{fill:#070b0f;}.cls-1,.cls-3,.cls-9{opacity:0.2;}.cls-2{fill:#f47e2f;}.cls-10,.cls-3{fill:#93420a;}.cls-4{fill:#ff954d;}.cls-5{fill:#c15206;opacity:0.3;}.cls-6{fill:#9b4104;}.cls-7,.cls-8{fill:#7a2c01;}.cls-7{opacity:0.5;}</style></defs><g id="Camada_2" data-name="Camada 2"><g id="obstaculos"><path class="cls-1" d="M24.33,38.16H80.21a0,0,0,0,1,0,0V226.47a0,0,0,0,1,0,0H24.33A24.33,24.33,0,0,1,0,202.14V62.49A24.33,24.33,0,0,1,24.33,38.16Z"/><rect class="cls-2" x="20.58" width="113.42" height="226.55" rx="56.71"/><path class="cls-3" d="M134,169.84v-48A67.66,67.66,0,0,0,77.29,91.1h0a67.67,67.67,0,0,0-56.71,30.72v48a56.71,56.71,0,0,0,53.79,56.63c1,0,1.94.08,2.92.08h0c1,0,1.95,0,2.92-.08A56.71,56.71,0,0,0,134,169.84Z"/><rect class="cls-4" x="20.58" y="113.13" width="113.42" height="113.42" rx="56.71"/><path class="cls-5" d="M77.29,0h0A56.71,56.71,0,0,0,20.58,56.71V169.84a56.71,56.71,0,0,0,56.71,56.71h0Z"/><path class="cls-6" d="M77.29,207.27a37.43,37.43,0,1,1,37.43-37.43A37.47,37.47,0,0,1,77.29,207.27Z"/><path class="cls-7" d="M77.29,188a18.15,18.15,0,1,1,18.15-18.15A18.17,18.17,0,0,1,77.29,188Z"/><path class="cls-8" d="M72.08,147.35a37.47,37.47,0,0,1,37.43,37.43,38.27,38.27,0,0,1-.29,4.57,37.42,37.42,0,1,0-69.07-24.08A37.45,37.45,0,0,1,72.08,147.35Z"/><g class="cls-9"><path class="cls-10" d="M58.67,36.75a5.79,5.79,0,0,1-3.25-10.58,39.37,39.37,0,0,1,42.3-1.1,5.78,5.78,0,0,1-6,9.91,27.83,27.83,0,0,0-29.86.77A5.77,5.77,0,0,1,58.67,36.75Z"/></g><g class="cls-9"><path class="cls-10" d="M58.67,55.46a5.78,5.78,0,0,1-3.25-10.57,39.39,39.39,0,0,1,42.3-1.11,5.78,5.78,0,0,1-6,9.91,27.86,27.86,0,0,0-29.86.78A5.75,5.75,0,0,1,58.67,55.46Z"/></g></g></g></svg>