<svg xmlns="http://www.w3.org/2000/svg" viewBox="0 0 70.21 86.11"><defs><style>.cls-1{fill:#282d8e;}.cls-1,.cls-3{opacity:0.5;}.cls-2{fill:#d2a4ea;}.cls-3{fill:#f9f0ff;}.cls-4,.cls-6{fill:#180219;}.cls-4{opacity:0.2;}.cls-5{fill:#303;}.cls-7{fill:#a180b7;}</style></defs><g id="Camada_2" data-name="Camada 2"><g id="props"><ellipse class="cls-1" cx="25.43" cy="78.75" rx="25.43" ry="7.36"/><path class="cls-2" d="M20.93,0H49.28A20.93,20.93,0,0,1,70.21,20.93V24.2A35.11,35.11,0,0,1,35.11,59.31h0A35.11,35.11,0,0,1,0,24.2V20.93A20.93,20.93,0,0,1,20.93,0Z" transform="translate(70.21 59.31) rotate(-180)"/><circle class="cls-3" cx="42.68" cy="11.47" r="7.03"/><circle class="cls-3" cx="55.14" cy="14.68" r="4.29"/><path class="cls-4" d="M12.2,8.52A45.17,45.17,0,0,0,50.46,29.66a45,45,0,0,0,18.47-3.95,35.09,35.09,0,0,1,1.28,9.4v3.27A20.93,20.93,0,0,1,49.28,59.31H20.93A20.93,20.93,0,0,1,0,38.38V35.11A35,35,0,0,1,12.2,8.52Z"/><ellipse class="cls-5" cx="35.73" cy="45.43" rx="29.44" ry="10.91"/><path class="cls-6" d="M35.73,34.52c16.26,0,29.44,4.89,29.44,10.91,0,2.21-1.78,4.26-4.82,6-1.25-4.76-12.08-8.48-25.24-8.48-12.59,0-23,3.4-25,7.86-2.41-1.58-3.79-3.41-3.79-5.36C6.29,39.41,19.47,34.52,35.73,34.52Z"/><path class="cls-7" d="M39.17,45.78c9.45,5,17.23,24.84,11,33.52-4.62,6.42-28.14,5-32-1.88C15.49,72.59,28.92,65.9,30.23,60.53c1.14-4.74-2.56-8.24.14-12.3C31.63,46.33,37.16,44.7,39.17,45.78Z"/><path class="cls-4" d="M30.23,60.53c.81-3.37-.83-6.12-.87-8.88,2.43,10.44,10.48,18.11,20,18.11a17.73,17.73,0,0,0,2.93-.25c.25,3.78-.37,7.26-2.19,9.79-4.62,6.41-28.14,5-32-1.88C15.49,72.59,28.92,65.9,30.23,60.53Z"/></g></g></svg>