<svg xmlns="http://www.w3.org/2000/svg" viewBox="0 0 94.5 86.11"><defs><style>.cls-1{fill:#282d8e;}.cls-1,.cls-7{opacity:0.5;}.cls-2{fill:#7b5593;}.cls-3{fill:#573470;}.cls-4{fill:#220223;}.cls-5{fill:#100111;}.cls-6{fill:#d2a4ea;}.cls-7{fill:#f9f0ff;}.cls-10,.cls-8{fill:#180219;}.cls-8{opacity:0.2;}.cls-9{fill:#303;}.cls-11{fill:#a180b7;}</style></defs><g id="Camada_2" data-name="Camada 2"><g id="props"><ellipse class="cls-1" cx="61.89" cy="74.89" rx="18.51" ry="5.36"/><path class="cls-2" d="M58.62,17.55H79.26A15.24,15.24,0,0,1,94.5,32.8v2.38A25.56,25.56,0,0,1,68.94,60.74h0A25.56,25.56,0,0,1,43.38,35.18V32.8A15.24,15.24,0,0,1,58.62,17.55Z" transform="translate(137.88 78.29) rotate(-180)"/><path class="cls-3" d="M52.26,23.75a32.88,32.88,0,0,0,27.86,15.4,32.76,32.76,0,0,0,13.44-2.88,25.33,25.33,0,0,1,.94,6.84V45.5A15.25,15.25,0,0,1,79.26,60.74H58.62A15.24,15.24,0,0,1,43.38,45.5V43.11A25.52,25.52,0,0,1,52.26,23.75Z"/><ellipse class="cls-4" cx="69.39" cy="50.63" rx="21.43" ry="7.94"/><path class="cls-5" d="M69.39,42.69c11.84,0,21.43,3.56,21.43,7.94,0,1.61-1.29,3.1-3.5,4.35-.92-3.46-8.8-6.17-18.38-6.17-9.17,0-16.77,2.48-18.22,5.72C49,53.38,48,52.05,48,50.63,48,46.25,57.56,42.69,69.39,42.69Z"/><path class="cls-2" d="M71.9,50.88c6.88,3.65,12.54,18.09,8,24.41C76.53,80,59.4,79,56.61,73.92c-2-3.52,7.83-8.39,8.77-12.3.84-3.45-1.86-6,.11-8.95C66.41,51.28,70.43,50.1,71.9,50.88Z"/><path class="cls-3" d="M65.38,61.62c.6-2.45-.59-4.45-.62-6.46,1.76,7.6,7.63,13.18,14.59,13.18a13.5,13.5,0,0,0,2.13-.18,10.86,10.86,0,0,1-1.59,7.13C76.53,80,59.4,79,56.61,73.92,54.65,70.4,64.44,65.53,65.38,61.62Z"/><ellipse class="cls-1" cx="25.43" cy="78.75" rx="25.43" ry="7.36"/><path class="cls-6" d="M20.93,0H49.28A20.93,20.93,0,0,1,70.21,20.93V24.2A35.11,35.11,0,0,1,35.11,59.31h0A35.11,35.11,0,0,1,0,24.2V20.93A20.93,20.93,0,0,1,20.93,0Z" transform="translate(70.21 59.31) rotate(-180)"/><circle class="cls-7" cx="42.68" cy="11.47" r="7.03"/><circle class="cls-7" cx="55.14" cy="14.68" r="4.29"/><path class="cls-8" d="M12.2,8.52A45.17,45.17,0,0,0,50.46,29.66a45,45,0,0,0,18.47-3.95,35.09,35.09,0,0,1,1.28,9.4v3.27A20.93,20.93,0,0,1,49.28,59.31H20.93A20.93,20.93,0,0,1,0,38.38V35.11A35,35,0,0,1,12.2,8.52Z"/><ellipse class="cls-9" cx="35.73" cy="45.43" rx="29.44" ry="10.91"/><path class="cls-10" d="M35.73,34.52c16.26,0,29.44,4.89,29.44,10.91,0,2.21-1.78,4.26-4.82,6-1.25-4.76-12.08-8.48-25.24-8.48-12.59,0-23,3.4-25,7.86-2.41-1.58-3.79-3.41-3.79-5.36C6.29,39.41,19.47,34.52,35.73,34.52Z"/><path class="cls-11" d="M39.17,45.78c9.45,5,17.23,24.84,11,33.52-4.62,6.42-28.14,5-32-1.88C15.49,72.59,28.92,65.9,30.23,60.53c1.14-4.74-2.56-8.24.14-12.3C31.63,46.33,37.16,44.7,39.17,45.78Z"/><path class="cls-8" d="M30.23,60.53c.81-3.37-.83-6.12-.87-8.88,2.43,10.44,10.48,18.11,20,18.11a17.73,17.73,0,0,0,2.93-.25c.25,3.78-.37,7.26-2.19,9.79-4.62,6.41-28.14,5-32-1.88C15.49,72.59,28.92,65.9,30.23,60.53Z"/></g></g></svg>