<svg xmlns="http://www.w3.org/2000/svg" viewBox="0 0 51.12 62.69"><defs><style>.cls-1{fill:#282d8e;opacity:0.5;}.cls-2{fill:#7b5593;}.cls-3{fill:#573470;}.cls-4{fill:#220223;}.cls-5{fill:#100111;}</style></defs><g id="Camada_2" data-name="Camada 2"><g id="props"><ellipse class="cls-1" cx="18.51" cy="57.33" rx="18.51" ry="5.36"/><path class="cls-2" d="M15.24,0H35.88A15.24,15.24,0,0,1,51.12,15.24v2.38A25.56,25.56,0,0,1,25.56,43.18h0A25.56,25.56,0,0,1,0,17.62V15.24A15.24,15.24,0,0,1,15.24,0Z" transform="translate(51.12 43.18) rotate(-180)"/><path class="cls-3" d="M8.88,6.2A32.9,32.9,0,0,0,36.74,21.59a32.75,32.75,0,0,0,13.44-2.87,25.27,25.27,0,0,1,.94,6.84v2.38A15.24,15.24,0,0,1,35.88,43.18H15.24A15.24,15.24,0,0,1,0,27.94V25.56A25.52,25.52,0,0,1,8.88,6.2Z"/><ellipse class="cls-4" cx="26.01" cy="33.08" rx="21.43" ry="7.94"/><path class="cls-5" d="M26,25.13c11.84,0,21.43,3.56,21.43,8,0,1.6-1.29,3.1-3.5,4.35C43,34,35.14,31.26,25.56,31.26c-9.17,0-16.77,2.47-18.22,5.72-1.75-1.16-2.76-2.49-2.76-3.9C4.58,28.69,14.18,25.13,26,25.13Z"/><path class="cls-2" d="M28.52,33.33c6.88,3.65,12.54,18.08,8,24.4C33.15,62.4,16,61.4,13.23,56.37c-2-3.52,7.83-8.39,8.77-12.3.84-3.45-1.86-6,.11-9C23,33.73,27.05,32.55,28.52,33.33Z"/><path class="cls-3" d="M22,44.07c.6-2.46-.59-4.46-.62-6.47C23.14,45.2,29,50.78,36,50.78a12.41,12.41,0,0,0,2.13-.18,10.85,10.85,0,0,1-1.59,7.13C33.15,62.4,16,61.4,13.23,56.37,11.27,52.85,21.06,48,22,44.07Z"/></g></g></svg>