<svg xmlns="http://www.w3.org/2000/svg" viewBox="0 0 83.53 187"><defs><style>.cls-1{fill:#1c147f;}</style></defs><g id="Camada_2" data-name="Camada 2"><g id="props"><path class="cls-1" d="M63.77,76a7.5,7.5,0,0,0-7.5,7.5V187h15V83.5A7.5,7.5,0,0,0,63.77,76Z"/><path class="cls-1" d="M82.9,18.72c-7.65-2.23-18.51,1.55-27.12,10.15a41.23,41.23,0,0,0-6.51,8.4V7.5a7.5,7.5,0,0,0-15,0V76.27a41.65,41.65,0,0,0-6.52-8.4C19.15,59.27,8.29,55.49.63,57.72-1.6,65.38,2.17,76.24,10.78,84.84,18.1,92.16,27,96,34.27,95.58V187h15V56.58c7.22.39,16.16-3.42,23.48-10.74C81.36,37.24,85.13,26.38,82.9,18.72Z"/></g></g></svg>