<svg xmlns="http://www.w3.org/2000/svg" viewBox="0 0 733.44 716.01"><defs><style>.cls-1{fill:#716ad3;}.cls-2{fill:#9485ff;}.cls-3{fill:#4a2fba;}.cls-4{fill:#3926a8;}.cls-5{fill:#5050bc;}</style></defs><g id="Camada_2" data-name="Camada 2"><g id="Camada_10" data-name="Camada 10"><rect class="cls-1" x="76.09" y="58.65" width="581.27" height="733.44" rx="38.65" transform="translate(792.1 58.65) rotate(90)"/><rect class="cls-2" x="76.09" y="36.65" width="581.27" height="733.44" rx="38.65" transform="translate(770.1 36.65) rotate(90)"/><rect class="cls-3" x="10" y="122.74" width="713.44" height="561.27" rx="28.65"/><rect class="cls-4" x="39.67" y="227.91" width="654.1" height="221.39" rx="25.28"/><rect class="cls-4" x="39.67" y="503.97" width="654.1" height="132.22" rx="19.54"/><path class="cls-5" d="M686.9,70.5A14.54,14.54,0,0,0,673.67,50H569.4V31.09A29.09,29.09,0,0,0,540.31,2H193.13A29.09,29.09,0,0,0,164,31.09V50H59.77A14.54,14.54,0,0,0,46.54,70.5a14.31,14.31,0,0,0,2.58,15.82L81,120.74,49.12,155.16A14.32,14.32,0,0,0,46.54,171a14.54,14.54,0,0,0,13.23,20.56H247.11A27.92,27.92,0,0,0,275,163.62v-20h183.4v20a27.92,27.92,0,0,0,27.91,27.92H673.67A14.54,14.54,0,0,0,686.9,171a14.32,14.32,0,0,0-2.58-15.82l-31.87-34.42,31.87-34.42A14.31,14.31,0,0,0,686.9,70.5Z"/><path class="cls-1" d="M247.11,177.54H59.77a14.52,14.52,0,0,1-10.65-24.38l37.43-40.42L49.12,72.32A14.51,14.51,0,0,1,59.77,48H247.11A27.91,27.91,0,0,1,275,75.86v73.76A27.92,27.92,0,0,1,247.11,177.54Z"/><path class="cls-1" d="M486.33,177.54H673.67a14.52,14.52,0,0,0,10.65-24.38l-37.43-40.42,37.43-40.42A14.51,14.51,0,0,0,673.67,48H486.33a27.91,27.91,0,0,0-27.91,27.91v73.76A27.92,27.92,0,0,0,486.33,177.54Z"/><rect class="cls-2" x="164.04" width="405.36" height="129.59" rx="29.09"/></g></g></svg>