<svg xmlns="http://www.w3.org/2000/svg" viewBox="0 0 164.03 182.03"><defs><style>.cls-1{fill:#5e53ea;}.cls-2{fill:#9485ff;}.cls-3{fill:#6f66e2;opacity:0.5;}.cls-4{fill:#e3e1f9;opacity:0.3;}.cls-5{fill:#4a2fba;}.cls-6{fill:#3926a8;}</style></defs><g id="Camada_2" data-name="Camada 2"><g id="Camada_12" data-name="Camada 12"><rect class="cls-1" y="18" width="164.03" height="164.03" rx="42.64"/><rect class="cls-2" width="164.03" height="164.03" rx="42.64"/><path class="cls-3" d="M126.71.34c0,.89,0,1.77,0,2.66A94.5,94.5,0,0,1,32.26,97.5,94.24,94.24,0,0,1,0,91.84v29.55A42.64,42.64,0,0,0,42.64,164h78.75A42.64,42.64,0,0,0,164,121.39V42.64A42.63,42.63,0,0,0,126.71.34Z"/><circle class="cls-4" cx="129.93" cy="30.64" r="15.75"/><circle class="cls-4" cx="101.38" cy="14.89" r="7.87"/><path class="cls-5" d="M127,31.77h0C116.65,25.4,102.75,28.18,96,38L74.27,69.54l-6.45-9.36c-6.37-9.25-19.49-11.88-29.29-5.87l-2.11,1.3c-9.81,6-12.6,18.38-6.23,27.63l22.26,32.32a21.74,21.74,0,0,0,21.43,8.79A23,23,0,0,0,96.45,115l37.18-54C140.38,51.24,137.43,38.13,127,31.77Z"/><path class="cls-6" d="M36.42,66.71l2.11-1.3c9.8-6,22.92-3.38,29.29,5.87l6.45,9.36L96,49.08c6.75-9.8,20.65-12.58,31-6.21a21.2,21.2,0,0,1,9.43,12.2A20.6,20.6,0,0,0,127,31.77C116.65,25.4,102.75,28.18,96,38L74.27,69.54l-6.45-9.36c-6.37-9.25-19.49-11.88-29.29-5.87l-2.11,1.3a19.41,19.41,0,0,0-8.8,22.32A19.94,19.94,0,0,1,36.42,66.71Z"/></g></g></svg>